# This file uses centimeters as units for non-parametric coordinates.

mtllib Magic_Gem_6.mtl
v -1.311328 0.333912 -0.745393
v 1.311330 0.333912 -0.745393
v -1.311328 0.333912 0.745424
v 1.311330 0.333912 0.745424
v 0.955319 0.490262 0.543055
v -0.955318 0.490262 0.543055
v 0.955319 0.490262 -0.543024
v -0.955318 0.490262 -0.543024
v -1.148657 0.333912 -0.919775
v 1.146612 0.333912 -0.921968
v -1.147267 0.333912 0.921296
v 1.145375 0.333912 0.923326
v -1.071545 0.490262 0.003378
v 1.071546 0.490262 0.003378
v -0.004717 0.490262 0.618211
v -0.004717 0.490262 -0.618181
v -0.744516 -0.490261 0.423227
v -0.603661 -0.490261 0.574222
v -0.603661 -0.490261 -0.574192
v -0.744516 -0.490261 -0.423196
v 0.603664 -0.490261 -0.574192
v 0.744517 -0.490261 -0.423196
v 0.744517 -0.490261 0.423227
v 0.603664 -0.490261 0.574222
v -0.986628 -0.169273 0.938501
v -0.990836 -0.164987 0.942504
v -0.004750 -0.164808 0.942649
v -0.004728 -0.169530 0.938225
v 0.990838 -0.164987 0.942504
v 0.986629 -0.169273 0.938501
v 1.221857 -0.165152 0.694564
v 1.217035 -0.169135 0.691823
v 1.221920 -0.165094 0.004211
v 1.216928 -0.169212 0.004194
v 1.221857 -0.165152 -0.694534
v 1.217035 -0.169135 -0.691793
v 0.990838 -0.164987 -0.942473
v 0.986629 -0.169273 -0.938471
v -0.004750 -0.164808 -0.942619
v -0.004728 -0.169530 -0.938195
v -0.990836 -0.164987 -0.942473
v -0.986628 -0.169273 -0.938471
v -1.221856 -0.165152 -0.694534
v -1.217035 -0.169135 -0.691793
v -1.221919 -0.165094 0.004211
v -1.216928 -0.169212 0.004194
v -1.221856 -0.165152 0.694564
v -1.217035 -0.169135 0.691823
v -0.736853 -0.390048 0.700913
v -0.741450 -0.386290 0.705286
v -0.003554 -0.386076 0.705516
v -0.003530 -0.390290 0.700606
v 0.741451 -0.386290 0.705286
v 0.736853 -0.390048 0.700913
v 0.914218 -0.386460 0.519691
v 0.909032 -0.389897 0.516743
v 0.914310 -0.386394 0.003155
v 0.908916 -0.389968 0.003137
v 0.914218 -0.386460 -0.519660
v 0.909032 -0.389897 -0.516713
v 0.741451 -0.386290 -0.705256
v 0.736853 -0.390048 -0.700883
v -0.003554 -0.386076 -0.705486
v -0.003530 -0.390290 -0.700576
v -0.741450 -0.386290 -0.705256
v -0.736853 -0.390048 -0.700883
v -0.914218 -0.386460 -0.519660
v -0.909032 -0.389897 -0.516713
v -0.914310 -0.386394 0.003155
v -0.908915 -0.389968 0.003137
v -0.914218 -0.386460 0.519691
v -0.909032 -0.389897 0.516743
v -1.248539 0.226961 1.138466
v -1.272368 0.118778 1.210298
v -1.248965 0.226936 -1.138056
v -1.272402 0.118817 -1.210298
v -1.508084 0.227935 -0.857237
v -1.567674 0.117284 -0.891108
v 1.248338 0.226972 -1.138615
v 1.272354 0.118760 -1.210253
v 1.508085 0.227935 -0.857237
v 1.567674 0.117284 -0.891108
v -1.508084 0.227935 0.857267
v -1.567674 0.117284 0.891140
v 1.247959 0.226994 1.138985
v 1.272325 0.118726 1.210256
v 1.508085 0.227935 0.857267
v 1.567674 0.117284 0.891140
vt 0.851234 0.191791
vt 0.925254 0.151975
vt 0.869024 0.369495
vt 0.850398 0.545267
vt 0.749517 0.567573
vt 0.650112 0.545774
vt 0.635478 0.369627
vt 0.651037 0.191737
vt 0.750474 0.169693
vt 0.576754 0.152466
vt 0.610504 0.121660
vt 0.609225 0.616029
vt 0.890788 0.615760
vt 0.924072 0.585451
vt 0.891735 0.121321
vt 0.576330 0.584982
vt 0.331970 0.760887
vt 0.182676 0.759360
vt 0.157040 0.733876
vt 0.157360 0.502262
vt 0.183011 0.476780
vt 0.331950 0.475341
vt 0.357490 0.500630
vt 0.357545 0.735622
vt 0.075892 0.416913
vt 0.074828 0.415947
vt 0.119083 0.374954
vt 0.119778 0.375987
vt 0.075695 0.616910
vt 0.074745 0.616903
vt 0.075662 0.819162
vt 0.074606 0.820131
vt 0.119618 0.860049
vt 0.118919 0.861080
vt 0.256806 0.861460
vt 0.256812 0.862563
vt 0.394015 0.863013
vt 0.394674 0.864100
vt 0.438149 0.820628
vt 0.439202 0.821539
vt 0.438285 0.616815
vt 0.439226 0.616807
vt 0.438252 0.415741
vt 0.439320 0.414837
vt 0.394305 0.373218
vt 0.394960 0.372135
vt 0.257030 0.374670
vt 0.257037 0.373566
vt 0.130178 0.472994
vt 0.129086 0.472020
vt 0.161610 0.441134
vt 0.162262 0.442200
vt 0.129856 0.617385
vt 0.128905 0.617379
vt 0.129717 0.763083
vt 0.128634 0.764059
vt 0.161932 0.793866
vt 0.161281 0.794933
vt 0.255803 0.795238
vt 0.255806 0.796484
vt 0.352694 0.796506
vt 0.353352 0.797531
vt 0.384509 0.764842
vt 0.385579 0.765838
vt 0.384520 0.617547
vt 0.385490 0.617538
vt 0.384388 0.471357
vt 0.385433 0.470359
vt 0.352687 0.439682
vt 0.353352 0.438659
vt 0.255963 0.440894
vt 0.255967 0.439643
vt 0.533178 0.606436
vt 0.511501 0.617046
vt 0.510933 0.122099
vt 0.533687 0.130774
vt 0.585891 0.655571
vt 0.575719 0.677230
vt 0.967096 0.607376
vt 0.990000 0.615558
vt 0.925750 0.675953
vt 0.913432 0.655496
vt 0.968400 0.130357
vt 0.989738 0.118977
vt 0.914674 0.081984
vt 0.924380 0.060000
vt 0.587084 0.082371
vt 0.574798 0.061839
vt 0.010000 0.877528
vt 0.010199 0.358396
vt 0.075334 0.298178
vt 0.504015 0.358587
vt 0.503797 0.877731
vt 0.438922 0.298324
vt 0.438665 0.937952
vt 0.075077 0.937806
vn 0.028869 0.929076 -0.368760
vn 0.028869 0.929076 -0.368760
vn 0.028869 0.929076 -0.368760
vn 0.000000 1.000000 0.000000
vn 0.000000 1.000000 0.000000
vn 0.000000 1.000000 0.000000
vn 0.000000 1.000000 0.000000
vn 0.000000 1.000000 0.000000
vn 0.000000 1.000000 0.000000
vn 0.000000 1.000000 0.000000
vn 0.000000 1.000000 0.000000
vn 0.267153 0.930871 0.249214
vn 0.267153 0.930872 0.249214
vn 0.267153 0.930872 0.249214
vn 0.363258 0.928398 0.078233
vn 0.363258 0.928398 0.078233
vn 0.363258 0.928398 0.078233
vn -0.546196 0.837657 0.000000
vn -0.546196 0.837657 0.000000
vn -0.546196 0.837657 0.000000
vn -0.267154 0.930871 -0.249213
vn -0.267154 0.930871 -0.249213
vn -0.267154 0.930871 -0.249213
vn 0.267153 0.930872 -0.249213
vn 0.267153 0.930872 -0.249213
vn 0.267153 0.930872 -0.249213
vn -0.267155 0.930871 0.249212
vn -0.267155 0.930871 0.249212
vn -0.267155 0.930871 0.249212
vn 0.000000 -1.000000 0.000000
vn 0.000000 -1.000000 0.000000
vn 0.000000 -1.000000 0.000000
vn 0.000000 -1.000000 0.000000
vn 0.000000 -1.000000 0.000000
vn 0.000000 -1.000000 0.000000
vn 0.000000 -1.000000 0.000000
vn 0.000000 -1.000000 0.000000
vn 0.363706 0.928295 -0.077365
vn 0.363706 0.928295 -0.077365
vn 0.363706 0.928295 -0.077365
vn 0.546194 0.837659 0.000000
vn 0.546194 0.837659 0.000000
vn 0.546194 0.837659 0.000000
vn -0.363259 0.928398 0.078233
vn -0.363259 0.928398 0.078233
vn -0.363259 0.928398 0.078233
vn -0.363707 0.928295 -0.077365
vn -0.363707 0.928295 -0.077366
vn -0.363707 0.928295 -0.077365
vn -0.000405 0.889337 0.457252
vn -0.000405 0.889337 0.457252
vn -0.000405 0.889337 0.457252
vn 0.028791 0.929471 0.367769
vn 0.028791 0.929471 0.367769
vn 0.028791 0.929471 0.367769
vn -0.029187 0.928906 0.369164
vn -0.029187 0.928906 0.369164
vn -0.029187 0.928906 0.369164
vn -0.029276 0.928457 -0.370284
vn -0.029276 0.928457 -0.370284
vn -0.029276 0.928457 -0.370284
vn -0.000439 0.888471 -0.458933
vn -0.000439 0.888471 -0.458933
vn -0.000439 0.888471 -0.458933
vn -0.434239 -0.804546 0.405144
vn -0.434239 -0.804546 0.405144
vn -0.434239 -0.804546 0.405144
vn -0.434239 -0.804546 0.405144
vn 0.000021 -0.683175 0.730255
vn 0.000021 -0.683175 0.730255
vn 0.000021 -0.683175 0.730255
vn 0.000021 -0.683175 0.730255
vn -0.000021 -0.683175 0.730255
vn -0.000021 -0.683175 0.730255
vn -0.000021 -0.683175 0.730255
vn -0.000021 -0.683175 0.730255
vn 0.434221 -0.804565 0.405126
vn 0.434221 -0.804565 0.405126
vn 0.434221 -0.804565 0.405127
vn 0.434221 -0.804565 0.405126
vn 0.636621 -0.771177 -0.000010
vn 0.636621 -0.771177 -0.000010
vn 0.636621 -0.771177 -0.000010
vn 0.636621 -0.771177 -0.000010
vn 0.636621 -0.771177 0.000010
vn 0.636621 -0.771177 0.000010
vn 0.636621 -0.771177 0.000010
vn 0.636621 -0.771177 0.000010
vn 0.434241 -0.804545 -0.405145
vn 0.434240 -0.804545 -0.405145
vn 0.434240 -0.804545 -0.405145
vn 0.434240 -0.804545 -0.405145
vn -0.000021 -0.683119 -0.730307
vn -0.000021 -0.683119 -0.730307
vn -0.000021 -0.683119 -0.730307
vn -0.000021 -0.683119 -0.730307
vn 0.000021 -0.683119 -0.730307
vn 0.000021 -0.683119 -0.730307
vn 0.000021 -0.683119 -0.730307
vn 0.000021 -0.683119 -0.730307
vn -0.434258 -0.804526 -0.405163
vn -0.434258 -0.804526 -0.405163
vn -0.434258 -0.804526 -0.405163
vn -0.434258 -0.804526 -0.405163
vn -0.636709 -0.771104 0.000010
vn -0.636709 -0.771104 0.000010
vn -0.636709 -0.771104 0.000010
vn -0.636709 -0.771104 0.000010
vn -0.636709 -0.771104 -0.000010
vn -0.636709 -0.771104 -0.000010
vn -0.636709 -0.771104 -0.000010
vn -0.636709 -0.771104 -0.000010
vn -0.372649 -0.860378 0.347682
vn -0.372648 -0.860378 0.347682
vn -0.372648 -0.860378 0.347682
vn -0.372648 -0.860378 0.347682
vn 0.000019 -0.758601 0.651555
vn 0.000019 -0.758601 0.651555
vn 0.000019 -0.758601 0.651555
vn 0.000019 -0.758601 0.651555
vn -0.000019 -0.758601 0.651555
vn -0.000019 -0.758601 0.651555
vn -0.000019 -0.758601 0.651555
vn -0.000019 -0.758601 0.651555
vn 0.372630 -0.860394 0.347663
vn 0.372630 -0.860394 0.347663
vn 0.372630 -0.860394 0.347663
vn 0.372630 -0.860394 0.347663
vn 0.552390 -0.833586 -0.000009
vn 0.552390 -0.833586 -0.000009
vn 0.552390 -0.833586 -0.000009
vn 0.552390 -0.833586 -0.000009
vn 0.552390 -0.833586 0.000009
vn 0.552390 -0.833586 0.000009
vn 0.552390 -0.833586 0.000009
vn 0.552390 -0.833586 0.000009
vn 0.372647 -0.860380 -0.347678
vn 0.372647 -0.860380 -0.347678
vn 0.372647 -0.860380 -0.347678
vn 0.372647 -0.860380 -0.347678
vn -0.000019 -0.758606 -0.651549
vn -0.000019 -0.758606 -0.651549
vn -0.000019 -0.758606 -0.651549
vn -0.000019 -0.758606 -0.651549
vn 0.000019 -0.758606 -0.651549
vn 0.000019 -0.758606 -0.651549
vn 0.000019 -0.758606 -0.651549
vn 0.000019 -0.758606 -0.651549
vn -0.372666 -0.860365 -0.347697
vn -0.372666 -0.860365 -0.347697
vn -0.372666 -0.860365 -0.347697
vn -0.372666 -0.860365 -0.347697
vn -0.552359 -0.833606 0.000010
vn -0.552359 -0.833606 0.000010
vn -0.552359 -0.833606 0.000010
vn -0.552359 -0.833606 0.000010
vn -0.552359 -0.833606 -0.000010
vn -0.552359 -0.833606 -0.000010
vn -0.552359 -0.833606 -0.000010
vn -0.552359 -0.833606 -0.000010
vn 0.000000 -0.732073 0.681226
vn 0.000000 -0.732073 0.681226
vn 0.000000 -0.732073 0.681226
vn 0.000000 -0.732073 0.681226
vn 0.000000 -0.732073 0.681226
vn 0.000000 -0.732073 0.681226
vn 0.394772 -0.841748 0.368259
vn 0.394772 -0.841748 0.368259
vn 0.394772 -0.841748 0.368259
vn 0.394772 -0.841748 0.368259
vn 0.583060 -0.812429 0.000000
vn 0.583060 -0.812429 0.000000
vn 0.583060 -0.812429 0.000000
vn 0.583060 -0.812429 0.000000
vn 0.583060 -0.812429 0.000000
vn 0.583060 -0.812429 0.000000
vn 0.394772 -0.841749 -0.368259
vn 0.394772 -0.841749 -0.368259
vn 0.394772 -0.841749 -0.368259
vn 0.394772 -0.841749 -0.368259
vn 0.000000 -0.732073 -0.681226
vn 0.000000 -0.732073 -0.681226
vn 0.000000 -0.732073 -0.681226
vn 0.000000 -0.732073 -0.681226
vn 0.000000 -0.732073 -0.681226
vn 0.000000 -0.732073 -0.681226
vn -0.394771 -0.841748 -0.368260
vn -0.394771 -0.841748 -0.368260
vn -0.394771 -0.841748 -0.368260
vn -0.394771 -0.841748 -0.368260
vn -0.583060 -0.812429 0.000000
vn -0.583060 -0.812429 0.000000
vn -0.583060 -0.812429 0.000000
vn -0.583060 -0.812429 0.000000
vn -0.583060 -0.812429 0.000000
vn -0.583060 -0.812429 0.000000
vn -0.394771 -0.841748 0.368261
vn -0.394771 -0.841748 0.368261
vn -0.394771 -0.841748 0.368261
vn -0.394771 -0.841748 0.368261
vn 0.000000 -0.784298 0.620384
vn 0.000000 -0.784298 0.620384
vn 0.000000 -0.784298 0.620384
vn 0.000000 -0.784298 0.620384
vn 0.000000 -0.784299 0.620384
vn 0.350026 -0.877992 0.326516
vn 0.350026 -0.877992 0.326516
vn 0.350026 -0.877992 0.326516
vn 0.350026 -0.877992 0.326516
vn 0.520798 -0.853680 0.000000
vn 0.520798 -0.853680 0.000000
vn 0.520798 -0.853680 0.000000
vn 0.520798 -0.853680 0.000000
vn 0.520798 -0.853680 0.000000
vn 0.350025 -0.877992 -0.326515
vn 0.350025 -0.877992 -0.326515
vn 0.350025 -0.877992 -0.326515
vn 0.350025 -0.877992 -0.326515
vn 0.000000 -0.784299 -0.620384
vn 0.000000 -0.784299 -0.620384
vn 0.000000 -0.784299 -0.620384
vn 0.000000 -0.784299 -0.620384
vn 0.000000 -0.784299 -0.620384
vn -0.350023 -0.877994 -0.326514
vn -0.350023 -0.877994 -0.326514
vn -0.350023 -0.877994 -0.326514
vn -0.350023 -0.877994 -0.326514
vn -0.520797 -0.853681 0.000000
vn -0.520796 -0.853681 0.000000
vn -0.520797 -0.853681 0.000000
vn -0.520797 -0.853681 0.000000
vn -0.520797 -0.853681 0.000000
vn -0.350023 -0.877993 0.326515
vn -0.350023 -0.877993 0.326515
vn -0.350023 -0.877993 0.326515
vn -0.350023 -0.877993 0.326515
vn -0.000077 0.551501 0.834174
vn -0.000077 0.551501 0.834174
vn -0.000077 0.551501 0.834174
vn -0.000077 0.551501 0.834174
vn -0.627799 0.519368 0.579763
vn -0.627799 0.519368 0.579763
vn -0.627799 0.519368 0.579763
vn -0.627799 0.519368 0.579763
vn -0.627846 0.519438 -0.579650
vn -0.627846 0.519438 -0.579650
vn -0.627845 0.519438 -0.579650
vn -0.627846 0.519438 -0.579650
vn -0.000083 0.553794 -0.832654
vn -0.000083 0.553794 -0.832654
vn -0.000083 0.553794 -0.832654
vn -0.000083 0.553794 -0.832654
vn -0.880443 0.474153 0.000000
vn -0.880443 0.474153 0.000000
vn -0.880443 0.474153 0.000000
vn -0.880443 0.474153 0.000000
vn 0.627781 0.519327 -0.579819
vn 0.627781 0.519327 -0.579819
vn 0.627781 0.519327 -0.579819
vn 0.627781 0.519327 -0.579819
vn 0.880446 0.474146 0.000000
vn 0.880446 0.474146 0.000000
vn 0.880446 0.474146 0.000000
vn 0.880446 0.474146 0.000000
vn 0.627741 0.519265 0.579919
vn 0.627741 0.519265 0.579919
vn 0.627741 0.519265 0.579919
vn 0.627741 0.519265 0.579919
vn 0.317149 0.901049 0.295851
vn 0.317149 0.901049 0.295851
vn 0.317149 0.901049 0.295851
vn 0.317149 0.901049 0.295851
vn -0.000242 0.896527 0.442989
vn -0.000242 0.896527 0.442989
vn -0.000242 0.896527 0.442989
vn -0.000242 0.896527 0.442989
vn -0.474205 0.880415 0.000000
vn -0.474205 0.880415 0.000000
vn -0.474205 0.880414 0.000000
vn -0.474205 0.880414 0.000000
vn 0.474208 0.880413 0.000000
vn 0.474208 0.880413 0.000000
vn 0.474208 0.880413 0.000000
vn 0.474208 0.880413 0.000000
vn -0.317148 0.901050 -0.295849
vn -0.317148 0.901050 -0.295849
vn -0.317148 0.901050 -0.295849
vn -0.317148 0.901050 -0.295849
vn 0.317149 0.901048 -0.295852
vn 0.317149 0.901048 -0.295852
vn 0.317149 0.901048 -0.295852
vn 0.317149 0.901048 -0.295852
vn -0.317149 0.901049 0.295850
vn -0.317149 0.901049 0.295850
vn -0.317149 0.901049 0.295850
vn -0.317149 0.901049 0.295850
vn -0.000260 0.897336 -0.441348
vn -0.000260 0.897336 -0.441348
vn -0.000260 0.897336 -0.441348
vn -0.000260 0.897336 -0.441348
vn -0.000002 -0.686356 0.727266
vn -0.000002 -0.686356 0.727266
vn -0.000002 -0.686356 0.727265
vn -0.000002 -0.686356 0.727266
vn -0.000002 -0.686356 0.727266
vn -0.431041 -0.807631 0.402413
vn -0.431041 -0.807631 0.402413
vn -0.431041 -0.807631 0.402413
vn -0.431041 -0.807631 0.402413
vn -0.000002 -0.686349 -0.727273
vn -0.000002 -0.686349 -0.727273
vn -0.000002 -0.686349 -0.727273
vn -0.000002 -0.686349 -0.727273
vn -0.000002 -0.686349 -0.727273
vn -0.431040 -0.807628 -0.402420
vn -0.431040 -0.807628 -0.402420
vn -0.431040 -0.807628 -0.402420
vn -0.431040 -0.807628 -0.402420
vn -0.632558 -0.774513 0.000000
vn -0.632558 -0.774513 0.000000
vn -0.632558 -0.774513 0.000000
vn -0.632558 -0.774513 0.000000
vn -0.632558 -0.774513 0.000000
vn 0.431042 -0.807632 -0.402410
vn 0.431042 -0.807632 -0.402410
vn 0.431042 -0.807632 -0.402410
vn 0.431042 -0.807632 -0.402410
vn 0.632559 -0.774512 0.000000
vn 0.632559 -0.774512 0.000000
vn 0.632559 -0.774512 0.000000
vn 0.632559 -0.774512 0.000000
vn 0.632559 -0.774512 0.000000
vn 0.431043 -0.807635 0.402402
vn 0.431043 -0.807635 0.402402
vn 0.431043 -0.807635 0.402402
vn 0.431043 -0.807635 0.402402
s off
g Magic_Gem_6
usemtl initialShadingGroup
f 7/1/1 10/2/2 16/3/3
f 16/3/4 8/4/5 13/5/6 6/6/7 15/7/8 5/8/9 14/9/10 7/1/11
f 5/8/12 12/10/13 4/11/14
f 14/9/15 5/8/16 4/11/17
f 3/12/18 13/5/19 1/13/20
f 8/4/21 9/14/22 1/13/23
f 2/15/24 10/2/25 7/1/26
f 3/12/27 11/16/28 6/6/29
f 22/17/30 23/18/31 24/19/32 18/20/33 17/21/34 20/22/35 19/23/36 21/24/37
f 14/9/38 2/15/39 7/1/40
f 14/9/41 4/11/42 2/15/43
f 3/12/44 6/6/45 13/5/46
f 1/13/47 13/5/48 8/4/49
f 15/7/50 11/16/51 12/10/52
f 15/7/53 12/10/54 5/8/55
f 6/6/56 11/16/57 15/7/58
f 16/3/59 9/14/60 8/4/61
f 16/3/62 10/2/63 9/14/64
f 25/25/65 26/26/66 47/27/67 48/28/68
f 26/26/69 25/25/70 28/29/71 27/30/72
f 27/30/73 28/29/74 30/31/75 29/32/76
f 29/32/77 30/31/78 32/33/79 31/34/80
f 31/34/81 32/33/82 34/35/83 33/36/84
f 33/36/85 34/35/86 36/37/87 35/38/88
f 35/38/89 36/37/90 38/39/91 37/40/92
f 37/40/93 38/39/94 40/41/95 39/42/96
f 39/42/97 40/41/98 42/43/99 41/44/100
f 41/44/101 42/43/102 44/45/103 43/46/104
f 43/46/105 44/45/106 46/47/107 45/48/108
f 45/48/109 46/47/110 48/28/111 47/27/112
f 49/49/113 50/50/114 71/51/115 72/52/116
f 50/50/117 49/49/118 52/53/119 51/54/120
f 51/54/121 52/53/122 54/55/123 53/56/124
f 53/56/125 54/55/126 56/57/127 55/58/128
f 55/58/129 56/57/130 58/59/131 57/60/132
f 57/60/133 58/59/134 60/61/135 59/62/136
f 59/62/137 60/61/138 62/63/139 61/64/140
f 61/64/141 62/63/142 64/65/143 63/66/144
f 63/66/145 64/65/146 66/67/147 65/68/148
f 65/68/149 66/67/150 68/69/151 67/70/152
f 67/70/153 68/69/154 70/71/155 69/72/156
f 69/72/157 70/71/158 72/52/159 71/51/160
f 28/29/161 25/25/162 50/50/163 51/54/164 53/56/165 30/31/166
f 32/33/167 30/31/168 53/56/169 55/58/170
f 34/35/171 32/33/172 55/58/173 57/60/174 59/62/175 36/37/176
f 38/39/177 36/37/178 59/62/179 61/64/180
f 40/41/181 38/39/182 61/64/183 63/66/184 65/68/185 42/43/186
f 44/45/187 42/43/188 65/68/189 67/70/190
f 46/47/191 44/45/192 67/70/193 69/72/194 71/51/195 48/28/196
f 25/25/197 48/28/198 71/51/199 50/50/200
f 52/53/201 49/49/202 18/20/203 24/19/204 54/55/205
f 56/57/206 54/55/207 24/19/208 23/18/209
f 58/59/210 56/57/211 23/18/212 22/17/213 60/61/214
f 62/63/215 60/61/216 22/17/217 21/24/218
f 64/65/219 62/63/220 21/24/221 19/23/222 66/67/223
f 68/69/224 66/67/225 19/23/226 20/22/227
f 70/71/228 68/69/229 20/22/230 17/21/231 72/52/232
f 49/49/233 72/52/234 17/21/235 18/20/236
f 73/73/237 74/74/238 86/75/239 85/76/240
f 74/74/241 73/73/242 83/77/243 84/78/244
f 75/79/245 76/80/246 78/81/247 77/82/248
f 76/80/249 75/79/250 79/83/251 80/84/252
f 77/82/253 78/81/254 84/78/255 83/77/256
f 80/84/257 79/83/258 81/85/259 82/86/260
f 82/86/261 81/85/262 87/87/263 88/88/264
f 85/76/265 86/75/266 88/88/267 87/87/268
f 85/76/269 87/87/270 4/11/271 12/10/272
f 12/10/273 11/16/274 73/73/275 85/76/276
f 77/82/277 83/77/278 3/12/279 1/13/280
f 4/11/281 87/87/282 81/85/283 2/15/284
f 75/79/285 77/82/286 1/13/287 9/14/288
f 2/15/289 81/85/290 79/83/291 10/2/292
f 83/77/293 73/73/294 11/16/295 3/12/296
f 9/14/297 10/2/298 79/83/299 75/79/300
f 86/89/301 74/90/302 26/26/303 27/30/304 29/32/305
f 74/90/306 84/91/307 47/27/308 26/26/309
f 39/42/310 41/44/311 76/92/312 80/93/313 37/40/314
f 78/94/315 76/92/316 41/44/317 43/46/318
f 45/48/319 47/27/320 84/91/321 78/94/322 43/46/323
f 80/93/324 82/95/325 35/38/326 37/40/327
f 33/36/328 35/38/329 82/95/330 88/96/331 31/34/332
f 88/96/333 86/89/334 29/32/335 31/34/336
